<?xml version="1.0" encoding="utf-8"?>
<!-- Generator: Adobe Illustrator 22.0.1, SVG Export Plug-In . SVG Version: 6.00 Build 0)  -->
<svg version="1.1" id="Objects" xmlns="http://www.w3.org/2000/svg" xmlns:xlink="http://www.w3.org/1999/xlink" x="0px" y="0px"
	 viewBox="0 0 40.7129 61.9664" style="enable-background:new 0 0 40.7129 61.9664;" xml:space="preserve">
<style type="text/css">
	.st0{fill:none;}
	.st1{fill:#050000;}
</style>
<g>
	<path class="st0" d="M9.5312,24.6445c-0.8994-2.2744-1.8233-4.5395-2.7754-6.788c-0.8877-2.0938-1.7012-4.2369-3.0137-6.1089
		c-0.5547-0.792-0.9297-1.1988-0.9912-2.1797C2.7362,9.3208,2.8671,9.1875,3.039,9.1377C2.913,8.919,2.787,8.6997,2.6611,8.4805
		C2.3153,8.5703,1.9726,8.6699,1.6259,8.7578c3.9033,6.0816,6.8545,12.6621,8.8975,19.565
		C10.2284,27.0796,9.9023,25.8516,9.5312,24.6445z"/>
	<path class="st0" d="M10.9189,29.7398c0.1142,0.4101,0.2373,0.8169,0.3447,1.2294c0.1406-0.3471,0.2734-0.6982,0.4121-1.0463
		C11.413,30.0171,11.0986,29.9751,10.9189,29.7398z"/>
	<path class="st0" d="M9.5693,18.6216c1.205,2.7012,2.7197,5.7837,3.0683,8.8447c1.209-3.1826,2.3223-6.4004,3.332-9.6562
		c0.125-0.4014,0.7129-0.6953,1.0801-0.3916c11.876,9.8276,19.6504,23.5869,21.7432,38.7461
		c2.375-16.1846-6.8779-31.5122-18.7266-42.2071c-0.1914-0.1723-0.2353-0.5009-0.1601-0.7339
		c1.2129-3.7485,2.4248-7.4975,3.6367-11.246C17.0673,4.3462,10.4911,6.4053,3.8261,8.169C6.0829,11.44,7.954,15.001,9.5693,18.6216
		z"/>
	<g>
		<path class="st0" d="M10.9189,29.7398c0.1142,0.4101,0.2373,0.8169,0.3447,1.2294c0.1406-0.3471,0.2734-0.6982,0.4121-1.0463
			C11.413,30.0171,11.0986,29.9751,10.9189,29.7398z"/>
		<path class="st0" d="M3.7421,11.7476c-0.5547-0.792-0.9297-1.1988-0.9912-2.1797C2.7362,9.3208,2.8671,9.1875,3.039,9.1377
			C2.913,8.919,2.787,8.6997,2.6611,8.4805C2.3153,8.5703,1.9726,8.6699,1.6259,8.7578c3.9033,6.0816,6.8545,12.6621,8.8975,19.565
			c-0.295-1.2432-0.6211-2.4712-0.9922-3.6783c-0.8994-2.2744-1.8233-4.5395-2.7754-6.788
			C5.8681,15.7627,5.0546,13.6196,3.7421,11.7476z"/>
		<path class="st0" d="M9.5693,18.6216c1.205,2.7012,2.7197,5.7837,3.0683,8.8447c1.209-3.1826,2.3223-6.4004,3.332-9.6562
			c0.125-0.4014,0.7129-0.6953,1.0801-0.3916c11.876,9.8276,19.6504,23.5869,21.7432,38.7461
			c2.375-16.1846-6.8779-31.5122-18.7266-42.2071c-0.1914-0.1723-0.2353-0.5009-0.1601-0.7339
			c1.2129-3.7485,2.4248-7.4975,3.6367-11.246C17.0673,4.3462,10.4911,6.4053,3.8261,8.169
			C6.0829,11.44,7.954,15.001,9.5693,18.6216z"/>
		<path class="st1" d="M24.4042,0.0552C16.6083,2.9575,8.664,5.4058,0.5907,7.4092C-0.2306,7.6133-0.1319,8.7149,0.497,8.9263
			c4.5039,7.6806,7.8701,15.8911,9.8662,24.5762c0.1777,0.77,1.1602,0.7387,1.4424,0.0732
			c1.5605-3.6812,2.9658-7.417,4.2246-11.2065c0.0723,0.1328,0.1846,0.2509,0.3633,0.3203
			c6.7402,2.6201,11.0244,10.3427,13.956,16.5493c3.0752,6.5122,5.0879,13.457,7.0772,20.3594
			c0.041,0.1416,0.1123,0.249,0.1963,0.3388c0.0302,0.4033,0.0742,0.8047,0.0957,1.208c0.0449,0.8369,1.2724,1.2032,1.54,0.2784
			c2.8066-9.6734,1.3984-20.0157-2.915-29.0298c-2.5684-5.3667-6.0977-10.25-10.1563-14.585
			c-1.0605-1.1323-2.1582-2.229-3.2881-3.2925c-1.5859-1.4936-1.1611-2.0464-0.5215-4.0136
			c1.0333-3.1773,2.0655-6.3545,3.0987-9.5323C25.6972,0.291,24.9902-0.1631,24.4042,0.0552z M11.2636,30.9692
			c-0.1074-0.4125-0.2305-0.8193-0.3447-1.2294c0.1797,0.2353,0.4941,0.2773,0.7568,0.1831
			C11.537,30.271,11.4042,30.6221,11.2636,30.9692z M10.5234,28.3228c-2.043-6.9029-4.9942-13.4834-8.8975-19.565
			c0.3467-0.0879,0.6894-0.1875,1.0352-0.2773C2.787,8.6997,2.913,8.919,3.039,9.1377C2.8671,9.1875,2.7362,9.3208,2.7509,9.5679
			c0.0615,0.9809,0.4365,1.3877,0.9912,2.1797c1.3125,1.872,2.126,4.0151,3.0137,6.1089c0.9521,2.2485,1.876,4.5136,2.7754,6.788
			C9.9023,25.8516,10.2284,27.0796,10.5234,28.3228z M19.9062,13.2236c-0.0752,0.233-0.0313,0.5616,0.1601,0.7339
			C31.915,24.6524,41.1679,39.98,38.7929,56.1646c-2.0928-15.1592-9.8672-28.9185-21.7432-38.7461
			c-0.3672-0.3037-0.9551-0.0098-1.0801,0.3916c-1.0097,3.2558-2.123,6.4736-3.332,9.6562
			c-0.3486-3.061-1.8633-6.1435-3.0683-8.8447C7.954,15.001,6.0829,11.44,3.8261,8.169c6.665-1.7637,13.2412-3.8228,19.7168-6.1914
			C22.331,5.7261,21.1191,9.4751,19.9062,13.2236z"/>
	</g>
</g>
</svg>
