<?xml version="1.0" encoding="utf-8"?>
<!-- Generator: Adobe Illustrator 22.0.1, SVG Export Plug-In . SVG Version: 6.00 Build 0)  -->
<svg version="1.1" id="Layer_1" xmlns="http://www.w3.org/2000/svg" xmlns:xlink="http://www.w3.org/1999/xlink" x="0px" y="0px"
	 viewBox="0 0 46.7931 15.844" style="enable-background:new 0 0 46.7931 15.844;" xml:space="preserve">
<path d="M46.4471,9.0616c0.0686-0.3531-0.0392-0.7311-0.3958-1.0045c-2.2519-1.7256-4.4398-0.9645-6.6251,0.3962
	c-3.8485,2.3954-7.7591,3.6233-12.3603,3.4987C19.7176,11.753,11.8731,8.7734,5.6629,4.4527
	C5.5283,4.3312,5.3911,4.213,5.2583,4.0899c2.821-0.3889,5.5384-1.0904,8.2228-2.1299c1.1121-0.4309,0.6135-1.9676-0.4904-1.96
	c-3.125,0.0224-6.2553,0.0009-9.3782,0.0774C2.2591,0.1106,0.8091-0.036,0.1885,1.37c-0.7157,1.6211,0.7853,3.4725,1.5206,4.8277
	c1.6132,2.9727,3.2243,5.9456,4.8334,8.9204c0.1968,0.3634,0.5234,0.5379,0.8547,0.5718c0.7232,0.4653,1.8844-0.1781,1.4942-1.1917
	C7.9757,12.1197,7.0732,9.735,6.1533,7.3567c11.5038,8.9289,27.985,11.229,40.3501,2.9473
	C46.9656,9.9944,46.8207,9.35,46.4471,9.0616z M3.3298,2.161c-0.0224-0.0244-0.045-0.0492-0.0674-0.0734
	c0.641-0.2102,1.5271-0.1503,2.3358-0.0817c-0.5788,0.0929-1.162,0.1727-1.7507,0.2374C3.6839,2.1678,3.506,2.1423,3.3298,2.161z"/>
</svg>
