<?xml version="1.0" encoding="utf-8"?>
<!-- Generator: Adobe Illustrator 22.0.1, SVG Export Plug-In . SVG Version: 6.00 Build 0)  -->
<svg version="1.1" id="Layer_1" xmlns="http://www.w3.org/2000/svg" xmlns:xlink="http://www.w3.org/1999/xlink" x="0px" y="0px"
	 viewBox="0 0 43.9072 35.531" style="enable-background:new 0 0 43.9072 35.531;" xml:space="preserve">
<path d="M42.8394,17.4187c-4.2845-1.4396-8.5786-2.8502-12.8683-4.2722c-1.031-0.3414-2.4022,0.5258-2.0812,1.7235
	c1.2006,4.4742,4.7113,4.0237,8.1317,4.5368c-2.4141,0.427-4.7129,1.5754-7.1502,2.0392c-1.4526,0.2767-2.9197,0.4442-4.3865,0.4847
	C14.347,20.6886,5.3945,12.4057,5.0561,0.9777C5.022-0.1731,3.3428-0.4044,3.2215,0.8063c-0.012,0.1149-0.0125,0.2261-0.022,0.3404
	c-2.8662,0.2604-3.5938,3.4979-3.0157,6.241c1.0395,4.9375,4.827,9.5569,8.7479,12.5465c4.3042,3.2822,9.5288,5.0684,14.9266,5.1068
	c0.5936,0.0042,1.2267-0.0055,1.8837-0.0309c3.2231,0.2153,6.4913-0.1678,9.5827-1.2533c-1.1399,2.6539-2.5947,5.0938-4.3752,7.3891
	c-0.5552,0.6734-1.1027,1.3516-1.6682,2.0174c-1.3033,1.5346,1.2339,3.2826,2.5431,1.814c0.5022-0.5636,0.9777-1.1378,1.4376-1.7184
	c3.6213-4.3221,7.0923-8.7489,10.3549-13.3547C44.2144,19.0606,43.8575,17.7607,42.8394,17.4187z M3.1472,4.182
	c0.1726,3.1274,1.0364,5.9936,2.4189,8.5378C3.1974,9.934,1.8525,6.8662,3.1472,4.182z"/>
</svg>
