<?xml version="1.0" encoding="utf-8"?>
<!-- Generator: Adobe Illustrator 22.0.1, SVG Export Plug-In . SVG Version: 6.00 Build 0)  -->
<svg version="1.1" id="Layer_1" xmlns="http://www.w3.org/2000/svg" xmlns:xlink="http://www.w3.org/1999/xlink" x="0px" y="0px"
	 viewBox="0 0 248.2842 251.2156" style="enable-background:new 0 0 248.2842 251.2156;" xml:space="preserve">
<style type="text/css">
	.st0{fill:#005CC3;}
	.st1{fill:#005CC3;stroke:#000000;stroke-miterlimit:10;}
	.st2{fill:#C93636;}
</style>
<g id="LAF">
</g>
<g>
	<g>
		<path class="st0" d="M131.6324,118.3277c-1.1802,0-2.3652-0.0093-3.5635-0.0273c-34.7505-0.5332-69.981-8.6992-98.2891-15.2603
			l-1.0464-0.2427c-3.0503-0.707-4.9502-3.7524-4.2432-6.8027c0.7065-3.0503,3.7515-4.9507,6.8027-4.2432l1.0469,0.2427
			c55.0005,12.7476,138.1182,32.0132,181.7417-14.1206c8.9683-9.4854,24.0625-35.8223,20.9351-52.3433
			c-1.0537-5.5649-4.1147-9.4678-9.3584-11.9312c-27.8364-13.0825-57.6338,36.9448-70.3574,58.3062
			c-0.6626,1.1123-1.2881,2.1616-1.8745,3.1392c-0.2534,0.4414-2.5464,4.6455-4.5693,8.355
			c-1.4785,2.7109-3.0337,5.5625-4.2227,7.7339c-0.5991,1.0942-1.106,2.0171-1.4648,2.6655
			c-3.0107,5.4399-7.0088,3.8911-8.1621,3.2861c-2.4292-1.272-3.9834-4.4966-2.3784-7.6914
			c0.1094-0.2183,0.2314-0.4263,0.3643-0.624c0.8315-1.4883,3.7334-6.8091,5.9092-10.7988
			c3.5688-6.5439,4.5684-8.3711,4.8008-8.7588c0.5811-0.9688,1.2002-2.0078,1.856-3.1089
			c6.9854-11.728,18.6768-31.3574,32.7168-45.9106C196.5065,1.296,214.0686-4.3754,230.4802,3.337
			c8.5269,4.0063,13.9482,10.9512,15.6772,20.0845c4.1274,21.8032-13.4888,51.2969-23.8369,62.2422
			C201.5533,107.6256,171.86,118.3273,131.6324,118.3277z"/>
	</g>
	<g>
		<path class="st0" d="M216.7643,156.5084c-0.4238,0-0.854-0.0479-1.2847-0.1475c-6.6509-1.541-12.7236-3.1348-18.5967-4.6758
			c-17.8613-4.687-33.2871-8.7349-57.5869-9.5815c-3.1294-0.1094-5.5776-2.7344-5.4688-5.8633
			c0.1094-3.1299,2.7344-5.5698,5.8633-5.4688c25.562,0.8906,42.3242,5.2896,60.0708,9.9463
			c5.7944,1.521,11.7866,3.0933,18.2778,4.5972c3.0503,0.7065,4.9497,3.7524,4.2432,6.8027
			C221.6754,154.7374,219.3429,156.5084,216.7643,156.5084z"/>
	</g>
	<g>
		<path class="st1" d="M111.213,135.5977"/>
	</g>
	<g>
		<path class="st0" d="M30.777,248.256c-4.9175,0.001-9.7476-1.1104-14.4844-3.3359c-8.5278-4.0068-13.9492-10.9531-15.6777-20.0869
			c-4.1265-21.8057,13.4897-51.2969,23.8379-62.2402c12.1094-12.8066,21.0137-19.5337,31.7578-23.9932
			c10.7983-4.4805,23.3564-6.4922,42.7534-8.6367c3.1128-0.3452,5.9141,1.8994,6.2578,5.0117
			c0.3442,3.1123-1.8994,5.9141-5.0117,6.2578c-18.355,2.0298-30.1104,3.8804-39.6533,7.8398
			c-9.1377,3.7925-16.9507,9.7676-27.8657,21.3115c-8.9683,9.4834-24.062,35.8174-20.9351,52.3408
			c1.0532,5.5654,4.1147,9.4688,9.3589,11.9336c3.1416,1.4756,6.3125,2.1484,9.4771,2.1494
			c24.874,0.0039,49.5942-41.5078,60.8823-60.46l1.4063-2.3584c0.8633-1.4834,13.4487-24.7119,23.3184-46.7886
			c1.2778-2.8579,4.6299-4.1396,7.4897-2.8618c2.8584,1.2778,4.1396,4.6313,2.8618,7.4897
			c-10.3018,23.0425-23.1719,46.6968-23.938,47.978l-1.397,2.3428c-6.9849,11.7285-18.6758,31.3574-32.7168,45.9121
			C55.5304,241.505,42.8961,248.255,30.777,248.256z"/>
	</g>
	<g>
		<g>
			<g>
				<path class="st0" d="M307.6373,125.0109"/>
				<path class="st0" d="M123.3868,309.2648"/>
				<path class="st2" d="M123.3868,317.7687"/>
				<path class="st0" d="M316.1411,125.011"/>
			</g>
		</g>
	</g>
</g>
</svg>
