<?xml version="1.0" encoding="utf-8"?>
<!-- Generator: Adobe Illustrator 22.0.1, SVG Export Plug-In . SVG Version: 6.00 Build 0)  -->
<svg version="1.1" id="Layer_1" xmlns="http://www.w3.org/2000/svg" xmlns:xlink="http://www.w3.org/1999/xlink" x="0px" y="0px"
	 viewBox="0 0 385.5117 406.9596" style="enable-background:new 0 0 385.5117 406.9596;" xml:space="preserve">
<style type="text/css">
	.st0{fill:#FFFFFF;}
	.st1{fill:#FFFFFF;stroke:#000000;stroke-miterlimit:10;}
</style>
<g id="LAF">
</g>
<g>
	<g>
		<path class="st0" d="M201.0029,207.5186c-1.1802,0-2.3652-0.0093-3.5635-0.0273c-34.7505-0.5332-69.981-8.6992-98.2891-15.2603
			l-1.0464-0.2427c-3.0503-0.707-4.9502-3.7524-4.2432-6.8027c0.7065-3.0503,3.7515-4.9507,6.8027-4.2432l1.0469,0.2427
			c55.0005,12.7476,138.1182,32.0132,181.7417-14.1206c8.9683-9.4854,24.0625-35.8223,20.9351-52.3433
			c-1.0537-5.5649-4.1147-9.4678-9.3584-11.9312c-27.8364-13.0825-57.6338,36.9448-70.3574,58.3062
			c-0.6626,1.1123-1.2881,2.1616-1.8745,3.1392c-0.2534,0.4414-2.5464,4.6455-4.5693,8.355
			c-1.4785,2.7109-3.0337,5.5625-4.2227,7.7339c-0.5991,1.0942-1.106,2.0171-1.4648,2.6655
			c-3.0107,5.4399-7.0088,3.8911-8.1621,3.2861c-2.4292-1.272-3.9834-4.4966-2.3784-7.6914
			c0.1094-0.2183,0.2314-0.4263,0.3643-0.624c0.8315-1.4883,3.7334-6.8091,5.9092-10.7988
			c3.5688-6.5439,4.5684-8.3711,4.8008-8.7588c0.5811-0.9688,1.2002-2.0078,1.856-3.1089
			c6.9854-11.728,18.6768-31.3574,32.7168-45.9106c18.2305-18.8965,35.7925-24.5679,52.2041-16.8555
			c8.5269,4.0063,13.9482,10.9512,15.6772,20.0845c4.1274,21.8032-13.4888,51.2969-23.8369,62.2422
			C270.9238,196.8165,241.2305,207.5182,201.0029,207.5186z"/>
	</g>
	<g>
		<path class="st0" d="M286.1348,245.6993c-0.4238,0-0.854-0.0479-1.2847-0.1475c-6.6509-1.541-12.7236-3.1348-18.5967-4.6758
			c-17.8613-4.687-33.2871-8.7349-57.5869-9.5815c-3.1294-0.1094-5.5776-2.7344-5.4688-5.8633
			c0.1094-3.1299,2.7344-5.5698,5.8633-5.4688c25.562,0.8906,42.3242,5.2896,60.0708,9.9463
			c5.7944,1.521,11.7866,3.0933,18.2778,4.5972c3.0503,0.7065,4.9497,3.7524,4.2432,6.8027
			C291.0459,243.9283,288.7134,245.6993,286.1348,245.6993z"/>
	</g>
	<g>
		<path class="st1" d="M180.5835,224.7886"/>
	</g>
	<g>
		<path class="st0" d="M100.1475,337.4469c-4.9175,0.001-9.7476-1.1104-14.4844-3.3359
			c-8.5278-4.0068-13.9492-10.9531-15.6777-20.0869c-4.1265-21.8057,13.4897-51.2969,23.8379-62.2402
			c12.1094-12.8066,21.0137-19.5337,31.7578-23.9932c10.7983-4.4805,23.3564-6.4922,42.7534-8.6367
			c3.1128-0.3452,5.9141,1.8994,6.2578,5.0117c0.3442,3.1123-1.8994,5.9141-5.0117,6.2578
			c-18.355,2.0298-30.1104,3.8804-39.6533,7.8398c-9.1377,3.7925-16.9507,9.7676-27.8657,21.3115
			c-8.9683,9.4834-24.062,35.8174-20.9351,52.3408c1.0532,5.5654,4.1147,9.4688,9.3589,11.9336
			c3.1416,1.4756,6.3125,2.1484,9.4771,2.1494c24.874,0.0039,49.5942-41.5078,60.8823-60.46l1.4063-2.3584
			c0.8633-1.4834,13.4487-24.7119,23.3184-46.7886c1.2778-2.8579,4.6299-4.1396,7.4897-2.8618
			c2.8584,1.2778,4.1396,4.6313,2.8618,7.4897c-10.3018,23.0425-23.1719,46.6968-23.938,47.978l-1.397,2.3428
			c-6.9849,11.7285-18.6758,31.3574-32.7168,45.9121C124.9009,330.6959,112.2666,337.4459,100.1475,337.4469z"/>
	</g>
	<g>
		<g>
			<g>
				<path class="st0" d="M42.0864,110.8844L19.4644,94.8136c-1.0439-0.7417-1.6699-1.5356-1.874-2.3804
					c-0.2056-0.8457-0.0273-1.6621,0.5342-2.4526c0.5615-0.7891,1.2778-1.2383,2.1504-1.3472
					c0.8726-0.1084,1.8379,0.2129,2.8955,0.9639l22.6221,16.0713c1.0576,0.751,1.6758,1.5596,1.8555,2.4253
					c0.1807,0.8662-0.0049,1.687-0.5566,2.4644c-0.543,0.7637-1.2593,1.1904-2.145,1.2793
					C44.0591,111.9254,43.1069,111.609,42.0864,110.8844z"/>
			</g>
			<g>
				<path class="st0" d="M61.9702,73.3228c1.3857,1.3076,2.4614,2.729,3.2266,4.2656c0.7632,1.5352,1.1802,3.1094,1.2505,4.7207
					c0.0688,1.6123-0.2075,3.1982-0.8296,4.7578c-0.6226,1.5605-1.603,3.0518-2.9424,4.4736
					c-1.3296,1.4102-2.752,2.4629-4.2676,3.1602c-1.5156,0.6963-3.0864,1.0586-4.71,1.0845c-1.6245,0.0259-3.2129-0.292-4.77-0.9531
					c-1.5562-0.6616-3.0332-1.6509-4.4321-2.9692c-1.4092-1.3291-2.4971-2.7612-3.2607-4.2974
					c-0.7637-1.5356-1.1802-3.0986-1.2495-4.6885c-0.0688-1.5894,0.2124-3.1699,0.8457-4.7417
					c0.6333-1.5723,1.604-3.0508,2.9116-4.4385c1.3281-1.4102,2.7617-2.4746,4.2993-3.1948
					c1.5366-0.7192,3.1118-1.0923,4.7251-1.1187c1.6128-0.0249,3.2012,0.2954,4.7617,0.9619
					C59.0908,71.0123,60.5713,72.0055,61.9702,73.3228z M57.5649,77.9957c-1.8989-1.7891-3.7715-2.7646-5.6157-2.9253
					c-1.8447-0.1606-3.4326,0.4634-4.7622,1.8735c-0.8564,0.9102-1.3765,1.9336-1.5586,3.0713
					c-0.1812,1.1392,0.0117,2.3301,0.5791,3.5732c0.5669,1.2427,1.4653,2.4434,2.6934,3.6006
					c1.2163,1.147,2.4531,1.9644,3.7114,2.4521c1.2583,0.4883,2.4526,0.6157,3.5835,0.3828
					c1.1323-0.2319,2.1372-0.8145,3.0171-1.7471c1.3281-1.4102,1.8555-3.0332,1.5796-4.8716
					C60.5171,81.567,59.4404,79.7643,57.5649,77.9957z"/>
			</g>
			<g>
				<path class="st0" d="M89.3472,57.8492c1.0562,1.415,1.6167,2.8833,1.6802,4.4053c0.0645,1.5215-0.3823,3.0449-1.3403,4.5693
					c-0.957,1.5244-2.4004,3.0073-4.3281,4.4473c-1.8389,1.3745-3.627,2.271-5.3623,2.6895
					c-1.7358,0.4185-3.2324,0.4395-4.4883,0.0615c-1.2573-0.3774-2.2036-0.9922-2.8394-1.8428
					c-0.4209-0.5635-0.5811-1.1953-0.479-1.895c0.1006-0.6997,0.4575-1.2788,1.0718-1.7368
					c0.5386-0.4019,1.0488-0.5791,1.5337-0.5313c0.4839,0.0479,1.0352,0.2109,1.6538,0.4902
					c1.2085,0.5215,2.3472,0.7334,3.4165,0.6377c1.0684-0.0967,2.2344-0.6172,3.499-1.5615
					c1.0264-0.7666,1.6978-1.624,2.0142-2.5718s0.2544-1.7153-0.1855-2.3042c-0.6729-0.9014-1.5054-1.3037-2.4966-1.2075
					c-0.9902,0.0972-2.4087,0.542-4.2529,1.3354c-2.0928,0.8799-3.8735,1.4932-5.3413,1.8379
					c-1.4673,0.3467-2.8276,0.3721-4.0801,0.0791c-1.2539-0.293-2.3091-1.0151-3.1694-2.167
					c-0.7666-1.0264-1.1846-2.2256-1.2539-3.5977c-0.0688-1.3721,0.29-2.7773,1.0791-4.2148
					c0.7881-1.437,2.0278-2.7871,3.7178-4.0498c1.3267-0.9912,2.6226-1.7432,3.8857-2.2588
					c1.2637-0.5146,2.4224-0.8037,3.4751-0.8691c1.0532-0.0654,1.9761,0.0459,2.7651,0.333c0.79,0.2876,1.3867,0.7012,1.7886,1.2393
					c0.439,0.5889,0.6021,1.2168,0.4883,1.8872s-0.5342,1.2769-1.2603,1.8188c-0.5254,0.3926-1.0845,0.5771-1.6787,0.5527
					c-0.5938-0.0249-1.3535-0.1602-2.2769-0.4063c-0.7622-0.21-1.5181-0.2695-2.269-0.1772
					c-0.75,0.0923-1.5762,0.4746-2.4766,1.1479c-0.9268,0.6924-1.5498,1.4648-1.8691,2.3164
					c-0.3179,0.8535-0.2578,1.5732,0.1816,2.1616c0.4019,0.5386,0.957,0.811,1.666,0.8188c0.707,0.0078,1.5264-0.1611,2.459-0.5059
					c0.9312-0.3452,2.189-0.855,3.7715-1.5303c1.8799-0.7993,3.5244-1.3062,4.9341-1.521c1.4102-0.2139,2.6479-0.1494,3.7148,0.1948
					C87.7617,56.2691,88.645,56.9107,89.3472,57.8492z"/>
			</g>
			<g>
				<path class="st0" d="M90.2485,37.5191l0.6162-0.3374l-1.8462-3.3716c-0.4951-0.9048-0.8589-1.627-1.0928-2.168
					c-0.2329-0.5391-0.3413-1.0547-0.3252-1.5449c0.0093-0.5034,0.1538-0.9883,0.4336-1.4531
					c0.2803-0.4648,0.6743-0.8359,1.1816-1.1133c0.7119-0.3906,1.5024-0.4766,2.3711-0.2563
					c0.5786,0.146,1.0596,0.4478,1.4438,0.9058c0.3848,0.4575,0.8354,1.1597,1.3525,2.105l2.0938,3.8237l2.0566-1.125
					c0.7944-0.4355,1.5039-0.5791,2.1279-0.4312c0.625,0.1489,1.0981,0.5171,1.4209,1.106
					c0.4121,0.7544,0.4033,1.4453-0.0278,2.0732c-0.4312,0.6274-1.2017,1.2456-2.313,1.853l-1.0469,0.5742l5.6494,10.3198
					c0.4795,0.8779,0.8799,1.5356,1.2002,1.9751c0.3203,0.439,0.6958,0.7329,1.124,0.8809
					c0.4287,0.1489,0.9448,0.0581,1.5474-0.2725c0.3291-0.1802,0.7427-0.4819,1.2417-0.9058
					c0.4971-0.4238,0.9038-0.7227,1.2188-0.8955c0.4536-0.2476,0.9604-0.2891,1.5229-0.125c0.561,0.165,0.9883,0.5137,1.2813,1.0488
					c0.4946,0.9043,0.3804,1.8667-0.3447,2.8857c-0.7236,1.02-2.0103,2.0371-3.8613,3.0498
					c-1.7534,0.9609-3.2451,1.3936-4.4717,1.2988c-1.228-0.0938-2.2666-0.585-3.1177-1.4727
					c-0.8516-0.8877-1.7529-2.2017-2.7061-3.9429l-5.897-10.772l-0.7412,0.4043c-0.8086,0.4434-1.5298,0.5889-2.1646,0.4375
					c-0.6353-0.1509-1.1133-0.521-1.436-1.1104c-0.3232-0.5898-0.3652-1.1943-0.1265-1.8154
					C88.854,38.5274,89.3979,37.9845,90.2485,37.5191z"/>
			</g>
			<g>
				<path class="st0" d="M134.2192,41.4493c-1.0342,1.6655-2.123,3.0308-3.2705,4.0967c-1.146,1.0659-2.562,1.9106-4.2471,2.5342
					c-1.5381,0.5698-3.0024,0.7661-4.3931,0.5894c-1.3901-0.1768-2.5923-0.6689-3.6079-1.4766
					c-1.0146-0.8066-1.7471-1.8184-2.1982-3.0352c-0.6074-1.6406-0.605-3.2324,0.0073-4.7754
					c0.6118-1.542,1.7534-2.8481,3.4233-3.917c0.3486-0.2285,1.2197-0.7764,2.6152-1.6426c1.3945-0.8662,2.585-1.627,3.5659-2.2822
					c0.9824-0.6553,2.0356-1.3984,3.1616-2.2314c-0.6602-1.5557-1.4087-2.5991-2.2471-3.1304
					c-0.8374-0.5308-2.1426-0.4683-3.9155,0.188c-1.5249,0.5635-2.5933,1.2012-3.2046,1.9111
					c-0.6123,0.7095-1.0356,1.5908-1.2705,2.644s-0.415,1.7573-0.5425,2.1128s-0.5645,0.6709-1.311,0.9478
					c-0.6743,0.2495-1.3359,0.249-1.9878-0.002c-0.6509-0.2505-1.1016-0.7124-1.3501-1.3872
					c-0.3906-1.0547-0.3965-2.2187-0.0181-3.4912c0.3779-1.2734,1.2393-2.5254,2.583-3.7559
					c1.3442-1.23,3.1953-2.2822,5.5552-3.1563c2.6372-0.9756,4.8257-1.4316,6.5649-1.3682
					c1.7412,0.0645,3.1714,0.6553,4.2935,1.7725c1.1216,1.1182,2.0947,2.79,2.9189,5.0171c0.5215,1.4077,0.9595,2.603,1.3164,3.5874
					c0.3545,0.9844,0.748,2.0801,1.1787,3.2866c0.4175,1.1289,1.0391,2.2354,1.8662,3.3203
					c0.8271,1.0854,1.3047,1.8037,1.4355,2.1558c0.2266,0.6152,0.1455,1.2827-0.2461,2.0029
					c-0.3921,0.7192-0.9541,1.2148-1.686,1.4863c-0.6167,0.2275-1.332,0.1631-2.147-0.1934
					C136.2476,42.9015,135.2988,42.2984,134.2192,41.4493z M130.6094,32.9137c-0.7603,0.6475-1.9126,1.4614-3.4575,2.4414
					c-1.5449,0.9805-2.6084,1.6738-3.1909,2.0811s-1.0752,0.9648-1.48,1.6729c-0.4043,0.708-0.4443,1.501-0.1187,2.3799
					c0.3369,0.9092,0.9668,1.5547,1.8921,1.9375c0.9248,0.3818,1.9434,0.3667,3.0571-0.0449
					c1.1865-0.4399,2.186-1.1045,2.9971-1.9971c0.811-0.8916,1.2993-1.8345,1.4644-2.8286
					c0.2056-1.1089-0.0762-2.7046-0.8462-4.7852L130.6094,32.9137z"/>
			</g>
			<g>
				<path class="st0" d="M152.1802,17.0748l0.1357,0.7607c0.8467-1.6582,1.8667-2.9478,3.0596-3.8667s2.6426-1.5313,4.3506-1.8354
					c1.6616-0.2964,3.2104-0.1992,4.647,0.2905c1.4355,0.4893,2.5962,1.3384,3.478,2.5464
					c0.5518,0.6943,0.9692,1.4771,1.2515,2.3467c0.2822,0.8706,0.5464,1.998,0.7935,3.3823l2.0918,11.7212
					c0.2241,1.2612,0.1055,2.2666-0.3564,3.0156c-0.4614,0.7485-1.1528,1.2056-2.0762,1.3701
					c-0.9385,0.1675-1.7583-0.0278-2.4614-0.5845c-0.7026-0.5571-1.1626-1.4507-1.3823-2.6821l-1.8726-10.498
					c-0.3706-2.0762-0.9429-3.6133-1.7158-4.6104c-0.7725-0.9966-2.02-1.3418-3.7427-1.0342
					c-1.124,0.2002-2.0869,0.7168-2.8906,1.5513c-0.8037,0.8335-1.3159,1.8735-1.5386,3.1187
					c-0.1401,0.9941,0.019,2.7749,0.4771,5.3438l1.4072,7.8906c0.2285,1.2773,0.1025,2.2876-0.375,3.0313
					c-0.479,0.7437-1.1875,1.1997-2.126,1.3672c-0.9067,0.1621-1.7124-0.0361-2.4141-0.5928
					c-0.7031-0.5566-1.1646-1.4512-1.3838-2.6816l-3.2471-18.2051c-0.2134-1.1992-0.1123-2.1421,0.3047-2.8281
					c0.417-0.6855,1.0801-1.1084,1.9878-1.2705c0.5537-0.0996,1.0767-0.0576,1.5698,0.1245
					c0.4927,0.1821,0.9199,0.5103,1.2832,0.9854C151.7969,15.7066,152.0449,16.3209,152.1802,17.0748z"/>
			</g>
			<g>
				<path class="st0" d="M199.8169,31.8556l0.0039-0.6323c-0.8652,0.979-1.7178,1.7744-2.5566,2.3862
					c-0.8408,0.6118-1.7495,1.0757-2.7285,1.3892c-0.978,0.3145-2.0459,0.4678-3.2012,0.4609
					c-1.5317-0.0098-2.9473-0.3428-4.248-0.9985c-1.3018-0.6567-2.4243-1.5894-3.3696-2.7983
					c-0.9458-1.209-1.6587-2.6279-2.1411-4.2559c-0.4829-1.6279-0.7173-3.3872-0.7051-5.2778
					c0.0234-3.9995,1.019-7.1108,2.9863-9.3335c1.9668-2.2217,4.5435-3.3232,7.7319-3.3037
					c1.8433,0.0117,3.396,0.3379,4.6577,0.9785c1.2617,0.6401,2.4897,1.6201,3.6851,2.9404l0.0576-9.4453
					c0.0088-1.3125,0.2764-2.3027,0.8042-2.9712s1.2754-1.0005,2.2446-0.9941c0.9683,0.0059,1.7124,0.3193,2.2319,0.9395
					c0.5205,0.6211,0.7764,1.5327,0.7686,2.7358l-0.1743,28.2183c-0.0073,1.2183-0.2944,2.1304-0.8604,2.7363
					c-0.5669,0.606-1.2954,0.9063-2.186,0.9009c-0.875-0.0059-1.5952-0.3262-2.1621-0.9629
					C200.0894,33.9317,199.8101,33.0279,199.8169,31.8556z M187.2896,22.3795c-0.0107,1.7344,0.25,3.2129,0.7822,4.4346
					c0.5313,1.2217,1.2632,2.1445,2.1973,2.7681c0.9336,0.623,1.9546,0.937,3.0645,0.9443
					c1.1245,0.0068,2.1543-0.2793,3.0874-0.8599c0.9326-0.5801,1.6807-1.4741,2.2432-2.6812
					c0.5615-1.2075,0.8486-2.7178,0.8599-4.5298c0.0107-1.7031-0.2573-3.1694-0.8052-4.3994
					c-0.5474-1.2305-1.2905-2.1729-2.2324-2.8271c-0.9414-0.6533-1.9751-0.9849-3.0986-0.9912
					c-1.1724-0.0078-2.2212,0.3184-3.147,0.9766c-0.9263,0.6582-1.647,1.6064-2.1621,2.8457
					C187.562,19.2994,187.3003,20.7389,187.2896,22.3795z"/>
			</g>
			<g>
				<path class="st0" d="M219.1001,11.6519l1.5049,0.2354l0.2964-1.8984c0.3096-1.9766,0.8057-3.5078,1.4893-4.5952
					c0.6831-1.0874,1.666-1.8032,2.9458-2.1489c1.2793-0.3452,2.9614-0.3555,5.0449-0.0298
					c3.6895,0.5767,5.3936,1.7681,5.1113,3.5747c-0.0918,0.5869-0.3638,1.0576-0.8145,1.4146
					c-0.4517,0.356-0.9399,0.4937-1.4634,0.4116c-0.2476-0.0391-0.6646-0.1514-1.2524-0.3379
					c-0.5869-0.187-1.0898-0.3135-1.5063-0.3789c-1.1426-0.1777-1.9272,0.0435-2.3569,0.6641
					c-0.4287,0.6211-0.7422,1.5566-0.9375,2.8066l-0.2344,1.5059l1.5513,0.2422c2.4077,0.3765,3.4985,1.291,3.271,2.7412
					c-0.1606,1.0347-0.5835,1.6406-1.2686,1.8184c-0.6836,0.1777-1.5898,0.1782-2.7158,0.002l-1.5513-0.2422l-2.6172,16.7422
					c-0.1953,1.2505-0.6426,2.1572-1.3384,2.7207c-0.6973,0.5625-1.5161,0.7705-2.4585,0.6235
					c-0.8955-0.1401-1.5889-0.5845-2.0801-1.3335c-0.4922-0.749-0.6396-1.7485-0.4443-2.9995l2.6162-16.7417l-1.7363-0.2715
					c-0.9424-0.147-1.6343-0.4727-2.0767-0.9766c-0.4434-0.5039-0.6123-1.0957-0.5059-1.7754
					C215.8091,11.9127,216.9849,11.3209,219.1001,11.6519z"/>
			</g>
			<g>
				<path class="st0" d="M247.728,20.733l-4.7886,17.8613c-0.3315,1.2373-0.8765,2.0947-1.6353,2.5703
					c-0.7583,0.4766-1.5908,0.5928-2.4956,0.3506c-0.9063-0.2432-1.5552-0.7656-1.9473-1.5654
					c-0.3911-0.8008-0.4263-1.8047-0.1021-3.0127l4.7402-17.6797c0.3271-1.2227,0.8569-2.0674,1.5889-2.5347
					c0.731-0.4668,1.5498-0.5791,2.4556-0.3364c0.9063,0.2432,1.5698,0.7524,1.9927,1.5288
					C247.9595,18.6925,248.0229,19.6314,247.728,20.733z M246.3823,13.5289c-0.8594-0.2295-1.5244-0.6914-1.9946-1.3833
					c-0.4692-0.6919-0.5747-1.521-0.3154-2.4873c0.2339-0.875,0.7397-1.5117,1.519-1.9097
					c0.7783-0.3984,1.5811-0.4858,2.4116-0.2632c0.7993,0.2144,1.4409,0.6611,1.9219,1.3398
					c0.481,0.6792,0.5903,1.5093,0.3276,2.4902c-0.2559,0.9502-0.7568,1.6128-1.5039,1.9868S247.2124,13.752,246.3823,13.5289z"/>
			</g>
			<g>
				<path class="st0" d="M265.8833,26.7154l-0.3008,0.7129c1.6133-0.9297,3.1714-1.4541,4.6729-1.5752
					c1.501-0.1201,3.0508,0.1572,4.6475,0.832c1.5542,0.6572,2.7998,1.5825,3.7388,2.7764
					c0.9365,1.1934,1.4458,2.5366,1.5273,4.0293c0.085,0.8848,0.0083,1.7686-0.23,2.6514
					c-0.2373,0.8838-0.6299,1.9727-1.1772,3.2681L274.126,50.377c-0.4985,1.1802-1.1455,1.9585-1.9409,2.335
					c-0.7944,0.3765-1.625,0.3818-2.4878,0.0171c-0.8784-0.3716-1.4604-0.9824-1.7446-1.832
					c-0.2861-0.8496-0.1846-1.8506,0.3018-3.0015l4.1519-9.8228c0.8203-1.9434,1.1787-3.543,1.0742-4.8008
					c-0.104-1.2568-0.9634-2.2266-2.5757-2.9072c-1.0493-0.4438-2.1392-0.5356-3.2666-0.2744
					c-1.1289,0.2607-2.1265,0.853-2.9902,1.7769c-0.6602,0.7559-1.4966,2.3359-2.5122,4.7397l-3.1216,7.3828
					c-0.5039,1.1953-1.1602,1.9736-1.9673,2.3369c-0.8062,0.3623-1.6489,0.3584-2.5264-0.0122
					c-0.8496-0.3589-1.4165-0.9639-1.7017-1.814c-0.2856-0.8496-0.1846-1.8496,0.3018-3.002l7.1992-17.0332
					c0.4751-1.1221,1.0732-1.8574,1.7974-2.2051c0.7227-0.3467,1.5093-0.3408,2.3589,0.0181
					c0.5176,0.2183,0.9341,0.5386,1.249,0.9604c0.3125,0.4209,0.4932,0.9287,0.5376,1.5244
					C266.3081,25.36,266.1812,26.0099,265.8833,26.7154z"/>
			</g>
			<g>
				<path class="st0" d="M297.7925,65.0396l0.3462-0.5288c-1.2578,0.3516-2.4063,0.5562-3.4434,0.6138
					c-1.0376,0.0576-2.0532-0.0479-3.0444-0.3154c-0.9922-0.2681-1.9717-0.7188-2.9385-1.3535
					c-1.2808-0.8398-2.2881-1.8887-3.0239-3.1465c-0.7349-1.2568-1.1714-2.6504-1.3081-4.1797
					c-0.1367-1.5283,0.0342-3.1074,0.5137-4.7363c0.4805-1.6289,1.2388-3.2329,2.2769-4.8145
					c2.1938-3.3442,4.7202-5.415,7.5786-6.2119s5.6201-0.3213,8.2852,1.4268c1.542,1.0117,2.6689,2.1289,3.3789,3.3525
					c0.7119,1.2231,1.21,2.7129,1.4966,4.4707l5.1812-7.897c0.7197-1.0977,1.4824-1.7842,2.2881-2.0591
					c0.8062-0.2744,1.6143-0.146,2.4248,0.3853c0.8096,0.5313,1.2642,1.1987,1.3638,2.0024
					c0.0996,0.8027-0.1816,1.707-0.8413,2.7129L302.8481,68.357c-0.668,1.0186-1.4053,1.6289-2.2095,1.8301
					c-0.8052,0.2002-1.5796,0.0566-2.3237-0.4316c-0.7319-0.4805-1.1621-1.1411-1.292-1.9834
					C296.8931,66.9303,297.1499,66.0201,297.7925,65.0396z M292.4233,50.2779c-0.9502,1.4502-1.5347,2.833-1.7534,4.1475
					c-0.2173,1.3145-0.1035,2.4873,0.3413,3.5171c0.4453,1.0308,1.1323,1.8501,2.0591,2.458
					c0.9409,0.6177,1.9609,0.936,3.0596,0.9565c1.0986,0.0195,2.2119-0.3247,3.3408-1.0332
					c1.1274-0.708,2.1885-1.8193,3.1821-3.3354c0.9346-1.4243,1.5063-2.8013,1.7158-4.1309
					c0.208-1.3296,0.0947-2.5249-0.3384-3.5854c-0.4365-1.061-1.123-1.8994-2.063-2.5166
					c-0.9805-0.6426-2.0386-0.9395-3.1738-0.8901s-2.2549,0.4546-3.3613,1.2144C294.3267,47.8399,293.3237,48.9063,292.4233,50.2779
					z"/>
			</g>
			<g>
				<path class="st0" d="M311.5698,80.7154c-0.7246-0.6436-1.1411-1.4326-1.2529-2.3667c-0.1099-0.9336,0.2085-1.8213,0.9556-2.6626
					c0.6323-0.7124,1.4282-1.1025,2.3882-1.1704c0.958-0.0679,1.8057,0.2251,2.542,0.8794
					c0.7354,0.6533,1.1377,1.4658,1.2065,2.4355c0.0674,0.9697-0.2197,1.8169-0.8628,2.541
					c-0.7368,0.8291-1.5762,1.249-2.5161,1.2607C313.0903,81.6436,312.27,81.338,311.5698,80.7154z"/>
			</g>
			<g>
				<path class="st0" d="M343.084,80.3844l-0.5913,0.498c1.8594-0.0957,3.4858,0.1426,4.8789,0.7158
					c1.3926,0.5742,2.6479,1.5234,3.7661,2.8496c1.0864,1.29,1.7773,2.6797,2.0723,4.168c0.2939,1.4893,0.1387,2.9175-0.4644,4.2852
					c-0.3262,0.8262-0.7954,1.5791-1.4077,2.2588s-1.4556,1.4727-2.5308,2.3789l-9.104,7.6729
					c-0.98,0.8257-1.9097,1.2266-2.7886,1.2012c-0.8804-0.0254-1.6216-0.3965-2.2261-1.1128
					c-0.6138-0.729-0.855-1.5366-0.7241-2.4238s0.6738-1.7329,1.6304-2.5386l8.1528-6.873c1.6143-1.3594,2.6582-2.623,3.1348-3.791
					c0.4761-1.168,0.1504-2.4214-0.9761-3.7588c-0.7354-0.873-1.665-1.4482-2.7886-1.7266c-1.124-0.2793-2.2822-0.2031-3.4707,0.228
					c-0.9312,0.375-2.3936,1.4033-4.3882,3.0854l-6.1294,5.1655c-0.9922,0.8359-1.9297,1.2319-2.813,1.1909
					c-0.8833-0.0425-1.6323-0.4282-2.2471-1.1563c-0.5938-0.7051-0.8242-1.501-0.6938-2.3877
					c0.1309-0.8872,0.6743-1.7334,1.6309-2.5391l14.1396-11.918c0.9316-0.7856,1.7988-1.1689,2.6011-1.1504
					c0.8013,0.0186,1.4995,0.3799,2.0952,1.0854c0.3618,0.4302,0.5874,0.9038,0.6758,1.4209
					c0.0889,0.5181,0.0186,1.0522-0.2114,1.604C344.0776,79.3687,343.6694,79.8912,343.084,80.3844z"/>
			</g>
			<g>
				<path class="st0" d="M345.4443,114.0304l23.4795-14.791c1.0835-0.6831,2.0547-0.9585,2.9146-0.8257
					c0.8594,0.1328,1.5469,0.6089,2.0625,1.4287c0.5176,0.8193,0.6587,1.6533,0.4268,2.501
					c-0.2319,0.8486-0.8965,1.6187-1.9932,2.3096l-23.4795,14.791c-1.0981,0.6914-2.0815,0.9551-2.9497,0.792
					c-0.8696-0.1631-1.5586-0.6484-2.0659-1.4546c-0.5-0.7935-0.6211-1.6167-0.3657-2.4707S344.3862,114.6969,345.4443,114.0304z"/>
			</g>
		</g>
		<g>
			<g>
				<path class="st0" d="M192.7573,406.9596C86.4707,406.9596,0,320.4889,0,214.2018
					c-0.0005-34.3594,9.1528-68.0913,26.4697-97.5493c1.1904-2.0244,3.7974-2.7002,5.8203-1.5107
					c2.0244,1.1899,2.7007,3.7959,1.5107,5.8203C17.251,149.1148,8.5034,181.3565,8.5039,214.2018
					c0,101.5977,82.6558,184.2539,184.2534,184.2539c101.5962,0,184.2505-82.6563,184.2505-184.2539
					c0-28.8271-6.4683-56.4287-19.2256-82.0386c-1.0469-2.1021-0.1914-4.6548,1.9102-5.7021
					c2.103-1.0464,4.6548-0.1909,5.7021,1.9102c13.3486,26.7983,20.1172,55.6758,20.1172,85.8306
					C385.5117,320.4889,299.0425,406.9596,192.7573,406.9596z"/>
			</g>
		</g>
	</g>
</g>
</svg>
