<?xml version="1.0" encoding="utf-8"?><svg xmlns="http://www.w3.org/2000/svg" xmlns:xlink="http://www.w3.org/1999/xlink"><defs><svg viewBox="0 0 46.793 15.844" id="arrow-1" xmlns="http://www.w3.org/2000/svg"><path d="M46.447 9.062a.992.992 0 00-.396-1.005c-2.252-1.726-4.44-.964-6.625.396-3.848 2.396-7.759 3.624-12.36 3.499-7.348-.199-15.193-3.179-21.403-7.5-.135-.12-.272-.239-.405-.362a36.34 36.34 0 008.223-2.13c1.112-.43.614-1.968-.49-1.96-3.125.022-6.256 0-9.378.077C2.259.111.809-.036.188 1.37-.527 2.991.974 4.843 1.71 6.198c1.613 2.972 3.224 5.945 4.833 8.92.197.364.524.538.855.572.723.465 1.885-.178 1.494-1.192-.915-2.378-1.818-4.763-2.738-7.141 11.504 8.929 27.985 11.229 40.35 2.947.463-.31.318-.954-.056-1.242zM3.33 2.16c-.023-.024-.045-.05-.068-.073.641-.21 1.527-.15 2.336-.082a34.72 34.72 0 01-1.75.237.982.982 0 00-.518-.082z"/></svg><svg version="1.1" id="arrow-2" x="0" y="0" viewBox="0 0 40.713 61.966" xml:space="preserve" xmlns="http://www.w3.org/2000/svg"><style>.bst0{fill:none}</style><path class="bst0" d="M9.531 24.645c-.9-2.275-1.823-4.54-2.775-6.788-.888-2.094-1.701-4.237-3.014-6.11-.555-.791-.93-1.198-.991-2.18-.015-.246.116-.38.288-.43l-.378-.657c-.346.09-.688.19-1.035.278 3.903 6.081 6.854 12.662 8.897 19.565a58.393 58.393 0 00-.992-3.678zm1.388 5.095c.114.41.237.817.345 1.23.14-.348.273-.699.412-1.047-.263.094-.577.052-.757-.183zM9.57 18.622c1.204 2.7 2.719 5.783 3.068 8.844a163.89 163.89 0 003.332-9.656c.125-.401.712-.695 1.08-.392 11.876 9.828 19.65 23.587 21.743 38.747 2.375-16.185-6.878-31.513-18.727-42.208-.191-.172-.235-.5-.16-.733l3.637-11.246A224.715 224.715 0 013.826 8.169c2.257 3.271 4.128 6.832 5.743 10.453z"/><path class="bst0" d="M10.919 29.74c.114.41.237.817.345 1.23.14-.348.273-.699.412-1.047-.263.094-.577.052-.757-.183zM3.742 11.748c-.555-.792-.93-1.2-.991-2.18-.015-.247.116-.38.288-.43l-.378-.658c-.346.09-.688.19-1.035.278 3.903 6.081 6.854 12.662 8.897 19.565a58.393 58.393 0 00-.992-3.678c-.9-2.275-1.823-4.54-2.775-6.788-.888-2.094-1.701-4.237-3.014-6.11zm5.828 6.874c1.204 2.7 2.719 5.783 3.068 8.844a163.89 163.89 0 003.332-9.656c.125-.401.712-.695 1.08-.392 11.876 9.828 19.65 23.587 21.743 38.747 2.375-16.185-6.878-31.513-18.727-42.208-.191-.172-.235-.5-.16-.733l3.637-11.246A224.715 224.715 0 013.826 8.169c2.257 3.271 4.128 6.832 5.743 10.453z"/><path d="M24.404.055A220.277 220.277 0 01.591 7.41c-.822.204-.723 1.306-.094 1.517 4.504 7.68 7.87 15.891 9.866 24.576.178.77 1.16.74 1.443.074A149.232 149.232 0 0016.03 22.37a.681.681 0 00.363.32c6.74 2.62 11.025 10.343 13.956 16.55 3.076 6.512 5.088 13.457 7.078 20.36a.82.82 0 00.196.338c.03.403.074.805.096 1.208.045.837 1.272 1.203 1.54.278 2.806-9.673 1.398-20.015-2.915-29.03-2.569-5.366-6.098-10.25-10.157-14.584a73.874 73.874 0 00-3.288-3.293c-1.586-1.494-1.16-2.046-.521-4.014L25.476.97c.221-.679-.486-1.133-1.072-.915zM11.264 30.97c-.108-.412-.23-.82-.345-1.23.18.236.494.278.757.184-.139.348-.272.7-.412 1.046zm-.74-2.646C8.48 21.42 5.528 14.839 1.625 8.758c.347-.088.69-.188 1.035-.277l.378.657c-.172.05-.303.183-.288.43.061.98.436 1.388.991 2.18 1.313 1.872 2.126 4.015 3.014 6.109a306.019 306.019 0 012.775 6.788 58.47 58.47 0 01.992 3.678zm9.382-15.1c-.075.234-.031.562.16.734C31.915 24.652 41.168 39.98 38.793 56.165 36.7 41.005 28.926 27.246 17.05 17.418c-.367-.303-.955-.01-1.08.392a163.89 163.89 0 01-3.332 9.656c-.349-3.06-1.864-6.143-3.069-8.844C7.954 15 6.083 11.44 3.826 8.169a224.715 224.715 0 0019.717-6.191l-3.637 11.246z"/></svg><svg viewBox="0 0 43.907 35.531" id="arrow-3" xmlns="http://www.w3.org/2000/svg"><path d="M42.84 17.419c-4.285-1.44-8.58-2.85-12.869-4.272-1.03-.342-2.402.525-2.081 1.723 1.2 4.474 4.711 4.024 8.132 4.537-2.414.427-4.713 1.575-7.15 2.039-1.453.277-2.92.444-4.387.485C14.347 20.689 5.395 12.406 5.056.978 5.022-.173 3.343-.404 3.221.806c-.012.115-.012.226-.022.34-2.866.262-3.592 3.5-3.015 6.243 1.04 4.937 4.827 9.557 8.748 12.546a24.877 24.877 0 0014.926 5.107c.594.004 1.227-.005 1.884-.03 3.223.214 6.491-.169 9.583-1.254a33.63 33.63 0 01-4.376 7.389c-.555.673-1.102 1.352-1.668 2.017-1.303 1.535 1.234 3.283 2.543 1.814.503-.563.978-1.137 1.438-1.718 3.621-4.322 7.092-8.749 10.355-13.355.597-.843.24-2.143-.778-2.485zM3.146 4.182a20.08 20.08 0 002.42 8.538c-2.37-2.786-3.715-5.854-2.42-8.538z"/></svg><svg version="1.1" id="logo" x="0" y="0" viewBox="0 0 385.512 406.96" xml:space="preserve" xmlns="http://www.w3.org/2000/svg"><style>.dst0{fill:#fff}</style><path class="dst0" d="M201.003 207.519c-1.18 0-2.365-.01-3.564-.028-34.75-.533-69.98-8.699-98.289-15.26l-1.046-.243a5.67 5.67 0 112.56-11.046l1.046.243c55 12.748 138.118 32.013 181.742-14.12 8.968-9.486 24.063-35.823 20.935-52.344-1.054-5.565-4.115-9.468-9.358-11.931-27.837-13.082-57.634 36.945-70.358 58.306a1224.88 1224.88 0 01-1.874 3.14c-.254.44-2.547 4.645-4.57 8.354a5081.522 5081.522 0 01-4.222 7.734 739.27 739.27 0 01-1.465 2.666c-3.01 5.44-7.009 3.89-8.162 3.286-2.43-1.272-3.984-4.497-2.379-7.692a5.71 5.71 0 01.365-.623c.831-1.489 3.733-6.81 5.909-10.8 3.569-6.543 4.568-8.37 4.8-8.758.582-.969 1.201-2.008 1.857-3.109 6.985-11.728 18.677-31.357 32.717-45.91 18.23-18.897 35.792-24.568 52.204-16.856 8.527 4.006 13.948 10.951 15.677 20.084 4.127 21.804-13.489 51.297-23.837 62.243-20.767 21.962-50.46 32.663-90.688 32.664zm85.132 38.181c-.424 0-.854-.049-1.285-.148-6.65-1.541-12.724-3.135-18.597-4.676-17.86-4.687-33.287-8.735-57.586-9.582a5.67 5.67 0 01-5.47-5.863 5.676 5.676 0 015.864-5.469c25.562.891 42.324 5.29 60.07 9.947 5.795 1.52 11.787 3.093 18.279 4.597a5.67 5.67 0 01-1.275 11.193zm-185.988 91.747c-4.917 0-9.747-1.11-14.484-3.336-8.528-4.007-13.95-10.953-15.678-20.087-4.126-21.806 13.49-51.297 23.838-62.24 12.11-12.807 21.014-19.534 31.758-23.993 10.798-4.48 23.356-6.492 42.753-8.637a5.667 5.667 0 016.258 5.012 5.668 5.668 0 01-5.011 6.258c-18.355 2.03-30.11 3.88-39.654 7.84-9.137 3.792-16.95 9.767-27.865 21.31-8.969 9.484-24.062 35.818-20.935 52.342 1.053 5.565 4.114 9.468 9.358 11.933 3.142 1.476 6.313 2.149 9.477 2.15 24.875.004 49.595-41.508 60.883-60.46l1.406-2.359c.863-1.483 13.449-24.712 23.319-46.788a5.67 5.67 0 0110.351 4.628c-10.302 23.042-23.172 46.696-23.938 47.978l-1.397 2.342c-6.985 11.729-18.676 31.358-32.717 45.912-12.968 13.444-25.602 20.194-37.722 20.195zM42.086 110.884l-22.622-16.07c-1.043-.742-1.67-1.536-1.874-2.38-.205-.846-.027-1.663.535-2.453.561-.79 1.277-1.239 2.15-1.348.873-.108 1.838.213 2.896.964l22.622 16.072c1.057.75 1.675 1.56 1.855 2.425.18.866-.005 1.687-.556 2.464-.543.764-1.26 1.19-2.145 1.28-.888.087-1.84-.229-2.86-.954zM61.97 73.323c1.386 1.307 2.462 2.729 3.227 4.265.763 1.536 1.18 3.11 1.25 4.721.07 1.612-.207 3.198-.83 4.758-.622 1.56-1.602 3.052-2.942 4.474-1.33 1.41-2.752 2.462-4.267 3.16a11.62 11.62 0 01-4.71 1.084c-1.625.026-3.213-.292-4.77-.953-1.556-.661-3.033-1.65-4.432-2.97-1.41-1.328-2.497-2.76-3.261-4.296-.764-1.536-1.18-3.1-1.25-4.689-.068-1.59.213-3.17.846-4.742s1.604-3.05 2.912-4.438c1.328-1.41 2.761-2.475 4.299-3.195 1.537-.72 3.112-1.092 4.725-1.119 1.613-.025 3.201.296 4.762.962 1.562.667 3.042 1.66 4.441 2.978zm-4.405 4.673c-1.899-1.79-3.772-2.765-5.616-2.926-1.844-.16-3.432.464-4.762 1.874-.856.91-1.376 1.934-1.559 3.071-.18 1.14.012 2.33.58 3.573.566 1.243 1.465 2.444 2.693 3.601 1.216 1.147 2.453 1.964 3.711 2.452 1.259.488 2.453.616 3.584.383 1.132-.232 2.137-.815 3.017-1.747 1.328-1.41 1.855-3.033 1.58-4.872-.276-1.838-1.353-3.64-3.228-5.41zM89.347 57.85c1.056 1.414 1.617 2.883 1.68 4.405.065 1.521-.382 3.044-1.34 4.569-.957 1.524-2.4 3.007-4.328 4.447-1.839 1.375-3.627 2.271-5.362 2.69-1.736.418-3.233.44-4.489.061-1.257-.377-2.203-.992-2.839-1.843a2.458 2.458 0 01-.479-1.895c.1-.7.458-1.279 1.072-1.737.538-.401 1.049-.579 1.533-.53.484.047 1.036.21 1.654.49 1.209.52 2.347.733 3.417.637 1.068-.097 2.234-.617 3.499-1.561 1.026-.767 1.698-1.624 2.014-2.572s.254-1.715-.186-2.304c-.672-.902-1.505-1.304-2.496-1.208-.99.097-2.409.542-4.253 1.335-2.093.88-3.874 1.494-5.341 1.838-1.468.347-2.828.372-4.08.08-1.254-.294-2.31-1.016-3.17-2.168-.766-1.026-1.184-2.225-1.254-3.597-.069-1.372.29-2.778 1.08-4.215.787-1.437 2.027-2.787 3.717-4.05 1.327-.991 2.623-1.743 3.886-2.259 1.264-.514 2.422-.803 3.475-.869 1.053-.065 1.976.046 2.765.333.79.288 1.387.701 1.789 1.24.439.588.602 1.216.488 1.887s-.534 1.277-1.26 1.819c-.526.392-1.085.577-1.679.552-.594-.025-1.354-.16-2.277-.406a5.801 5.801 0 00-2.269-.177c-.75.092-1.576.474-2.477 1.148-.926.692-1.55 1.464-1.869 2.316-.318.854-.257 1.573.182 2.162.402.538.957.81 1.666.818.707.008 1.526-.16 2.459-.505a88.906 88.906 0 003.771-1.53c1.88-.8 3.525-1.307 4.935-1.522 1.41-.214 2.647-.15 3.714.195 1.067.345 1.95.987 2.652 1.925zm.902-20.33l.616-.338-1.846-3.372c-.496-.905-.86-1.627-1.093-2.168-.233-.539-.342-1.055-.325-1.545.009-.503.153-.988.433-1.453.28-.465.674-.836 1.182-1.113.712-.39 1.502-.477 2.37-.256.58.146 1.06.447 1.445.905.384.458.835 1.16 1.352 2.105l2.094 3.824 2.057-1.125c.794-.435 1.503-.58 2.127-.431.625.149 1.099.517 1.421 1.106.412.754.404 1.445-.027 2.073-.432.627-1.202 1.246-2.313 1.853l-1.047.574 5.649 10.32c.48.878.88 1.536 1.2 1.975.32.44.696.733 1.124.881.429.149.945.058 1.548-.273.329-.18.742-.481 1.241-.905.497-.424.904-.723 1.22-.896.453-.247.96-.289 1.522-.125.561.165.988.514 1.281 1.049.495.904.38 1.867-.344 2.886-.724 1.02-2.01 2.037-3.862 3.05-1.753.96-3.245 1.393-4.471 1.298a4.674 4.674 0 01-3.118-1.472c-.852-.888-1.753-2.202-2.706-3.943l-5.897-10.772-.741.404c-.809.443-1.53.589-2.165.437-.635-.15-1.113-.52-1.436-1.11-.323-.59-.365-1.194-.127-1.815.241-.62.785-1.164 1.636-1.629zm43.971 3.93c-1.035 1.665-2.124 3.03-3.271 4.096-1.146 1.066-2.562 1.91-4.247 2.534-1.538.57-3.003.766-4.393.59-1.39-.177-2.593-.67-3.608-1.477a6.847 6.847 0 01-2.199-3.035c-.607-1.64-.605-3.233.008-4.776.611-1.542 1.753-2.848 3.423-3.917.349-.228 1.22-.776 2.615-1.642a131.203 131.203 0 003.566-2.282 79.888 79.888 0 003.162-2.232c-.66-1.556-1.409-2.599-2.247-3.13-.838-.531-2.143-.469-3.916.188-1.525.563-2.593 1.201-3.204 1.91-.613.71-1.036 1.592-1.271 2.645s-.415 1.757-.542 2.113-.565.67-1.312.947a2.725 2.725 0 01-1.987-.002c-.651-.25-1.102-.712-1.35-1.387-.391-1.054-.397-2.218-.018-3.49.377-1.274 1.239-2.526 2.583-3.757 1.344-1.23 3.195-2.282 5.555-3.156 2.637-.976 4.825-1.432 6.565-1.368 1.74.064 3.171.655 4.293 1.772 1.122 1.118 2.095 2.79 2.919 5.017.522 1.408.96 2.603 1.316 3.588.355.984.748 2.08 1.18 3.286.417 1.13 1.038 2.236 1.865 3.32.827 1.086 1.305 1.804 1.436 2.156.226.616.145 1.283-.246 2.003-.392.72-.954 1.215-1.686 1.487-.617.227-1.332.163-2.147-.194-.814-.355-1.763-.959-2.843-1.808zm-3.61-8.536c-.76.647-1.913 1.461-3.458 2.441-1.545.98-2.609 1.674-3.191 2.081s-1.075.965-1.48 1.673c-.404.708-.444 1.501-.119 2.38.337.91.967 1.555 1.892 1.938.925.381 1.944.366 3.057-.045 1.187-.44 2.186-1.105 2.998-1.997.81-.892 1.299-1.835 1.464-2.83.206-1.108-.076-2.704-.846-4.784l-.318-.857zm21.57-15.839l.136.76c.847-1.658 1.867-2.947 3.06-3.866s2.642-1.531 4.35-1.836c1.662-.296 3.21-.199 4.647.29a7.009 7.009 0 013.478 2.547c.552.695.97 1.477 1.252 2.347.282.87.546 1.998.793 3.382l2.092 11.721c.224 1.262.105 2.267-.356 3.016-.462.749-1.153 1.206-2.077 1.37-.938.168-1.758-.028-2.461-.584-.703-.557-1.163-1.451-1.382-2.682l-1.873-10.498c-.37-2.077-.943-3.614-1.716-4.61-.772-.997-2.02-1.343-3.742-1.035a5.183 5.183 0 00-2.891 1.551c-.804.834-1.316 1.874-1.539 3.119-.14.994.02 2.775.477 5.344l1.408 7.89c.228 1.278.102 2.288-.375 3.032-.48.743-1.188 1.2-2.126 1.367-.907.162-1.713-.036-2.415-.593-.703-.556-1.164-1.451-1.383-2.681L146.29 18.22c-.214-1.199-.113-2.142.304-2.828.417-.685 1.08-1.108 1.988-1.27a2.947 2.947 0 011.57.124c.493.182.92.51 1.283.986.362.475.61 1.089.745 1.843zm47.637 14.781l.004-.633c-.865.98-1.718 1.775-2.557 2.386a9.573 9.573 0 01-2.728 1.39c-.978.314-2.046.467-3.202.46-1.531-.01-2.947-.342-4.248-.998-1.301-.657-2.424-1.59-3.37-2.798-.945-1.21-1.658-2.628-2.14-4.256-.483-1.628-.717-3.387-.705-5.278.023-4 1.019-7.11 2.986-9.333 1.967-2.222 4.544-3.324 7.732-3.304 1.843.012 3.396.338 4.658.978 1.261.64 2.49 1.62 3.685 2.94l.057-9.444c.01-1.313.277-2.303.805-2.972s1.275-1 2.244-.994c.968.006 1.713.32 2.232.94.52.62.776 1.532.769 2.736l-.175 28.218c-.007 1.218-.294 2.13-.86 2.736-.567.606-1.295.906-2.186.901-.875-.006-1.595-.326-2.162-.963-.567-.636-.846-1.54-.84-2.712zm-12.527-9.477c-.011 1.735.25 3.213.782 4.435.531 1.222 1.263 2.145 2.197 2.768a5.473 5.473 0 003.065.944 5.663 5.663 0 003.087-.86c.933-.58 1.68-1.474 2.243-2.68.562-1.208.849-2.718.86-4.53.01-1.704-.257-3.17-.805-4.4-.547-1.23-1.29-2.173-2.232-2.827a5.378 5.378 0 00-3.1-.991c-1.171-.008-2.22.318-3.146.976-.926.659-1.647 1.607-2.162 2.846-.517 1.24-.779 2.679-.79 4.32zm31.81-10.727l1.505.235.296-1.898c.31-1.977.806-3.508 1.49-4.595.683-1.088 1.666-1.804 2.945-2.15 1.28-.344 2.962-.355 5.045-.029 3.69.577 5.394 1.768 5.112 3.575a2.166 2.166 0 01-.815 1.414c-.452.356-.94.494-1.463.412-.248-.04-.665-.151-1.253-.338a10.453 10.453 0 00-1.506-.379c-1.143-.178-1.927.044-2.357.664-.429.621-.742 1.557-.937 2.807l-.235 1.506 1.552.242c2.407.376 3.498 1.29 3.27 2.741-.16 1.035-.583 1.64-1.268 1.819-.684.177-1.59.178-2.716.002l-1.551-.243-2.617 16.742c-.196 1.251-.643 2.158-1.339 2.721-.697.563-1.516.77-2.458.624-.896-.14-1.59-.585-2.08-1.334-.493-.749-.64-1.748-.445-3l2.617-16.741-1.737-.271c-.942-.147-1.634-.473-2.076-.977-.444-.504-.613-1.096-.506-1.775.236-1.513 1.412-2.105 3.527-1.774zm28.628 9.081l-4.789 17.861c-.331 1.238-.876 2.095-1.635 2.57-.758.477-1.59.593-2.495.351-.907-.243-1.556-.765-1.948-1.565-.39-.801-.426-1.805-.102-3.013l4.74-17.68c.327-1.222.857-2.067 1.59-2.534.73-.467 1.549-.58 2.455-.337.906.244 1.57.753 1.992 1.53.423.776.487 1.715.192 2.817zm-1.346-7.204c-.86-.23-1.524-.691-1.994-1.383-.47-.692-.575-1.521-.316-2.488.234-.875.74-1.511 1.52-1.91a3.266 3.266 0 012.41-.263c.8.215 1.442.661 1.923 1.34.48.68.59 1.51.327 2.49-.256.95-.756 1.613-1.504 1.987s-1.536.45-2.366.227zm19.501 13.186l-.3.713c1.613-.93 3.17-1.454 4.672-1.575 1.501-.12 3.051.157 4.648.832 1.554.657 2.8 1.583 3.739 2.777.936 1.193 1.446 2.536 1.527 4.029a7.386 7.386 0 01-.23 2.651c-.237.884-.63 1.973-1.177 3.268l-4.636 10.967c-.498 1.18-1.145 1.958-1.94 2.335-.795.377-1.626.382-2.489.017-.878-.371-1.46-.982-1.744-1.832-.286-.85-.185-1.85.302-3.001l4.151-9.823c.82-1.944 1.18-3.543 1.075-4.801-.104-1.257-.964-2.227-2.576-2.907a5.185 5.185 0 00-3.267-.275c-1.129.261-2.126.853-2.99 1.777-.66.756-1.496 2.336-2.512 4.74l-3.122 7.383c-.504 1.195-1.16 1.973-1.967 2.337-.806.362-1.649.358-2.526-.012-.85-.36-1.417-.964-1.702-1.814-.286-.85-.185-1.85.302-3.002l7.199-17.034c.475-1.122 1.073-1.857 1.797-2.205.723-.347 1.51-.34 2.36.018a2.97 2.97 0 011.248.96c.313.422.493.93.538 1.525.045.597-.082 1.247-.38 1.952zm31.91 38.325l.346-.53c-1.258.352-2.407.557-3.444.615a9.577 9.577 0 01-3.044-.316c-.992-.268-1.972-.719-2.939-1.353-1.28-.84-2.288-1.889-3.023-3.147-.735-1.257-1.172-2.65-1.309-4.18-.136-1.528.035-3.107.514-4.736.48-1.629 1.239-3.233 2.277-4.814 2.194-3.345 4.72-5.415 7.579-6.212s5.62-.322 8.285 1.427c1.542 1.011 2.669 2.128 3.379 3.352.712 1.223 1.21 2.713 1.496 4.47l5.181-7.896c.72-1.098 1.483-1.784 2.289-2.06.806-.274 1.614-.145 2.424.386.81.531 1.265 1.199 1.364 2.002.1.803-.181 1.707-.841 2.713l-15.479 23.596c-.668 1.019-1.405 1.629-2.21 1.83-.805.2-1.579.057-2.323-.431-.732-.481-1.162-1.142-1.292-1.984-.13-.842.127-1.752.77-2.732zm-5.37-14.762c-.95 1.45-1.534 2.833-1.753 4.147-.217 1.315-.104 2.488.341 3.518a5.47 5.47 0 002.06 2.458 5.67 5.67 0 003.059.956c1.098.02 2.212-.325 3.34-1.033 1.128-.708 2.19-1.82 3.183-3.336.934-1.424 1.506-2.8 1.716-4.13.208-1.33.094-2.525-.339-3.586a5.388 5.388 0 00-2.063-2.516c-.98-.643-2.038-.94-3.174-.89s-2.254.454-3.36 1.214c-1.106.76-2.11 1.826-3.01 3.198zm19.147 30.437c-.725-.643-1.141-1.432-1.253-2.366-.11-.934.208-1.822.955-2.663.633-.712 1.429-1.102 2.389-1.17.958-.068 1.805.225 2.542.88.735.652 1.137 1.465 1.206 2.435.068.97-.22 1.817-.863 2.54-.736.83-1.576 1.25-2.516 1.261a3.518 3.518 0 01-2.46-.917zm31.514-.331l-.591.498c1.86-.095 3.486.143 4.879.716 1.392.574 2.647 1.524 3.766 2.85 1.086 1.29 1.777 2.68 2.072 4.168.294 1.49.139 2.917-.464 4.285-.327.826-.796 1.58-1.408 2.259s-1.456 1.473-2.53 2.379l-9.105 7.673c-.98.825-1.91 1.226-2.788 1.2-.88-.025-1.622-.396-2.227-1.112-.613-.729-.855-1.537-.724-2.424s.674-1.733 1.63-2.538l8.154-6.873c1.614-1.36 2.658-2.623 3.134-3.791.476-1.168.15-2.422-.976-3.76a5.184 5.184 0 00-2.788-1.726c-1.124-.28-2.283-.203-3.471.228-.931.375-2.394 1.404-4.388 3.086l-6.13 5.165c-.992.836-1.93 1.232-2.813 1.191-.883-.043-1.632-.428-2.247-1.156-.594-.705-.824-1.501-.694-2.388.131-.887.675-1.733 1.631-2.54l14.14-11.917c.932-.786 1.799-1.169 2.601-1.15.801.018 1.5.38 2.095 1.085.362.43.588.904.676 1.42.089.519.019 1.053-.211 1.605-.23.552-.638 1.074-1.223 1.567zm2.36 33.646l23.48-14.79c1.083-.684 2.055-.96 2.914-.826.86.133 1.547.609 2.063 1.428.518.82.659 1.654.427 2.501-.232.849-.897 1.62-1.993 2.31l-23.48 14.791c-1.098.691-2.082.955-2.95.792-.87-.163-1.558-.648-2.066-1.455-.5-.793-.62-1.616-.365-2.47s.912-1.614 1.97-2.28z"/><path class="dst0" d="M192.757 406.96C86.471 406.96 0 320.489 0 214.202c0-34.36 9.153-68.092 26.47-97.55a4.253 4.253 0 017.33 4.31c-16.549 28.153-25.297 60.395-25.296 93.24 0 101.597 82.656 184.254 184.253 184.254 101.596 0 184.25-82.657 184.25-184.254 0-28.827-6.468-56.429-19.225-82.039a4.253 4.253 0 017.612-3.792c13.35 26.799 20.118 55.676 20.118 85.83 0 106.288-86.47 192.759-192.755 192.759z"/></svg><svg version="1.1" id="logo-short" x="0" y="0" viewBox="0 0 248.284 251.216" xml:space="preserve" xmlns="http://www.w3.org/2000/svg"><style>.est0{fill:#005cc3}</style><path class="est0" d="M131.632 118.328c-1.18 0-2.365-.01-3.563-.028-34.75-.533-69.981-8.699-98.29-15.26l-1.046-.243a5.67 5.67 0 112.56-11.046l1.047.243c55 12.748 138.118 32.013 181.741-14.12 8.969-9.486 24.063-35.823 20.936-52.344-1.054-5.565-4.115-9.468-9.359-11.93-27.836-13.083-57.634 36.944-70.357 58.305a1224.88 1224.88 0 01-1.875 3.14c-.253.44-2.546 4.645-4.569 8.354a5021.76 5021.76 0 01-4.223 7.734 739.27 739.27 0 01-1.464 2.666c-3.011 5.44-7.01 3.891-8.163 3.286-2.429-1.272-3.983-4.497-2.378-7.691.11-.219.231-.427.364-.624.832-1.489 3.734-6.81 5.91-10.8 3.568-6.543 4.568-8.37 4.8-8.758.581-.969 1.2-2.008 1.856-3.109 6.986-11.728 18.677-31.357 32.717-45.91C196.506 1.296 214.07-4.375 230.48 3.337c8.527 4.006 13.948 10.951 15.677 20.084 4.128 21.804-13.488 51.297-23.837 62.243-20.767 21.962-50.46 32.663-90.688 32.664zm85.132 38.18c-.424 0-.854-.048-1.284-.147-6.651-1.541-12.724-3.135-18.597-4.676-17.861-4.687-33.287-8.735-57.587-9.581a5.67 5.67 0 01-5.469-5.864 5.676 5.676 0 015.864-5.469c25.562.891 42.324 5.29 60.07 9.947 5.795 1.52 11.787 3.093 18.278 4.597a5.67 5.67 0 01-1.275 11.193zM30.777 248.256c-4.918.001-9.748-1.11-14.484-3.336-8.528-4.007-13.95-10.953-15.678-20.087-4.127-21.806 13.49-51.297 23.838-62.24 12.11-12.807 21.014-19.534 31.758-23.993 10.798-4.48 23.356-6.492 42.753-8.637a5.667 5.667 0 016.258 5.012 5.668 5.668 0 01-5.012 6.258c-18.355 2.03-30.11 3.88-39.653 7.84-9.138 3.792-16.95 9.767-27.866 21.31-8.968 9.484-24.062 35.818-20.935 52.342 1.053 5.565 4.115 9.468 9.359 11.933 3.141 1.476 6.312 2.149 9.477 2.15 24.874.004 49.594-41.508 60.882-60.46l1.407-2.359c.863-1.483 13.448-24.712 23.318-46.788a5.67 5.67 0 0110.352 4.628c-10.302 23.042-23.172 46.696-23.939 47.978l-1.396 2.342c-6.985 11.729-18.676 31.358-32.717 45.912-12.969 13.444-25.603 20.194-37.722 20.195z"/></svg></defs></svg>