<?xml version="1.0" encoding="utf-8"?>
<!-- Generator: Adobe Illustrator 22.0.1, SVG Export Plug-In . SVG Version: 6.00 Build 0)  -->
<svg version="1.1" id="Layer_1" xmlns="http://www.w3.org/2000/svg" xmlns:xlink="http://www.w3.org/1999/xlink" x="0px" y="0px"
	 viewBox="0 13502.2568 225.4989 150.335" style="enable-background:new 0 13502.2568 225.4989 150.335;" xml:space="preserve">
<style type="text/css">
	.st0{fill:#F0F0F0;}
	.st1{fill:#D80027;}
	.st2{fill:#0052B4;}
</style>
<g>
	<path class="st0" d="M0,13502.2578h225.4989v150.334H0V13502.2578z"/>
	<path class="st1" d="M126.8431,13502.2568H98.6557v61.0723H0v28.1875h98.6557v61.0723h28.1874v-61.0723h98.6558v-28.1875h-98.6558
		V13502.2568z"/>
	<g>
		<path class="st2" d="M173.4337,13603.5674l52.0652,28.9258v-28.9258H173.4337z M137.2601,13603.5674l88.2388,49.0215v-13.8623
			l-63.2864-35.1592H137.2601z M201.995,13652.5889l-64.7349-35.9678v35.9678H201.995z"/>
	</g>
	<path class="st0" d="M137.2601,13603.5674l88.2388,49.0215v-13.8623l-63.2864-35.1592H137.2601z"/>
	<path class="st1" d="M137.2601,13603.5674l88.2388,49.0215v-13.8623l-63.2864-35.1592H137.2601z"/>
	<g>
		<path class="st2" d="M39.7886,13603.5664L0,13625.6709v-22.1045H39.7886z M88.2388,13609.7998v42.7881H11.2269L88.2388,13609.7998
			z"/>
	</g>
	<path class="st1" d="M63.2863,13603.5674L0,13638.7266v13.8623l88.2388-49.0215H63.2863z"/>
	<g>
		<path class="st2" d="M52.0651,13551.2783L0,13522.3525v28.9258H52.0651z M88.2388,13551.2783L0,13502.2568v13.8613
			l63.2863,35.1602H88.2388z M23.5038,13502.2568l64.7349,35.9668v-35.9668H23.5038z"/>
	</g>
	<path class="st0" d="M88.2388,13551.2783L0,13502.2568v13.8613l63.2863,35.1602H88.2388z"/>
	<path class="st1" d="M88.2388,13551.2783L0,13502.2568v13.8613l63.2863,35.1602H88.2388z"/>
	<g>
		<path class="st2" d="M185.7102,13551.2783l39.7887-22.1045v22.1045H185.7102z M137.2601,13545.0449v-42.7881h77.0118
			L137.2601,13545.0449z"/>
	</g>
	<path class="st1" d="M162.2125,13551.2783l63.2864-35.1602v-13.8613l-88.2388,49.0215H162.2125z"/>
</g>
</svg>
